<svg width="14" height="8" xmlns="http://www.w3.org/2000/svg"><g fill="rgb(255,0,0)" fill-rule="evenodd"><path d="M12.012 0l-.698.727c1.734 1.808 1.734 4.738 0 6.546l.698.727c2.117-2.207 2.117-5.79 0-8zM10.3 1.714l-.7.735c.967 1.014.967 2.66 0 3.673l.7.735c1.352-1.418 1.352-3.721 0-5.143zM1.588 0l.698.727c-1.734 1.808-1.734 4.738 0 6.546L1.588 8c-2.117-2.207-2.117-5.79 0-8zM3.3 1.714l.7.735c-.967 1.014-.967 2.66 0 3.673l-.7.735c-1.352-1.418-1.352-3.721 0-5.143z"/><circle cx="6.8" cy="4.4" r="1.6"/></g></svg>