<svg width="26" height="24" xmlns="http://www.w3.org/2000/svg"><path fill="#ffb200" fill-rule="evenodd" d="M12.75 9 17 16.5 12.75 24h-8.5L0 16.5 4.25 9h8.5Zm1.903 4.8H7.09l-1.041 1.8h8.148l-.34.587-.702 1.213H5.007l-1.042 1.8h8.147L11.071 21H3.367l1.292 2.278h7.682l3.841-6.778-1.529-2.7ZM14.596 0l.397.008a10.86 10.86 0 0 1 4.061.965 10.86 10.86 0 0 1 5.698 6.084 10.86 10.86 0 0 1-.272 8.33 10.86 10.86 0 0 1-6.083 5.698 10.839 10.839 0 0 1-3.41.693l-.437.008.556-.963c.204-.087.395-.175.565-.257a9.242 9.242 0 0 0 2.069-.194c.716-.15 1.964-.57 2.674-.895a10.356 10.356 0 0 0 4.01-5.331c-.198.083-.893.408-1.268.559l-.112.043-2.378-2.928.217-4.495c.755-.518 1.275-.873 1.56-1.063l.132-.088.11-.07c.73.533 1.737 2.144 2.095 2.935a10.45 10.45 0 0 0-.501-1.804 10.337 10.337 0 0 0-3.89-4.938c.65.574 1.047 1.395 1.482 2.148.034.062.418.896.455 1.038l.002.02-1.857 1.273-3.857-1.655-1.65-3.404c.53-.26 1.278-.736 1.776-.983a10.66 10.66 0 0 0-1.767-.22 10.326 10.326 0 0 0-4.071.66c-.93.35-1.793.823-2.576 1.41a.045.045 0 0 0 .018-.005c-.33.366-.63.763-.899 1.184a9.835 9.835 0 0 0-1.035 2.18c-.498.311-1.234.928-1.824 2.06l-.078.282-.07.284h-.52a10.914 10.914 0 0 1 3.14-5.574A10.838 10.838 0 0 1 10.724.7 10.842 10.842 0 0 1 14.2.005L14.596 0Zm5.86 12.755 2.002 2.492c-.27.96-.676 1.939-1.185 2.663a8.52 8.52 0 0 1-1.263.752 8.161 8.161 0 0 1-1.891.649c-.49.102-.985.155-1.478.158l-.092-.054-.091-.056 1.676-2.903-1.378-2.387.162-.343 3.538-.97ZM12.34 9.722H4.66L.818 16.5l1.298 2.292.893-1.55.951-1.643h.005L6.048 12h7.584l-1.29-2.278Zm1.547-7.841c.016.002.04.019.062.03l.031.01 1.443 2.981-2.336 2.822-3.951.035h-.831L7.628 5.54A8.171 8.171 0 0 1 8.45 3.84a7.371 7.371 0 0 1 1.522-1.717c2.189-.548 3.463-.343 3.916-.242Z"/></svg>