<svg width="26" height="26" xmlns="http://www.w3.org/2000/svg"><path d="M12.557.396c6.904 0 12.5 5.596 12.5 12.5s-5.596 12.5-12.5 12.5c-6.903 0-12.5-5.596-12.5-12.5s5.597-12.5 12.5-12.5zm.059 5.29c-3.94 0-7.132 3.362-7.132 7.51 0 4.146 3.193 7.507 7.132 7.507 3.939 0 7.132-3.361 7.132-7.508s-3.193-7.508-7.132-7.508zM4.08 18.633c-.263-.455-.867-.6-1.346-.323-.479.276-.655.872-.392 1.327.263.455.866.6 1.345.323.48-.276.655-.872.393-1.327zm18.383-.443c-.48-.277-1.083-.132-1.345.323-.263.456-.087 1.05.392 1.327.479.277 1.082.132 1.345-.323.263-.455.087-1.05-.392-1.327zm-2.245-2.82a5.357 5.357 0 01-.714 2.322 5.367 5.367 0 01-1.603 1.745c1.105.39 2.34-.011 2.919-1.014.583-1.01.304-2.291-.602-3.052zm-15.33.016c-.89.762-1.16 2.032-.581 3.035.583 1.01 1.832 1.409 2.944 1.005a5.357 5.357 0 01-1.653-1.779 5.367 5.367 0 01-.71-2.261zm10.481-7.38V10.8h-2.277l-.122.443.269.088c.696.246 1.22.58 1.574 1.004.547.647.82 1.422.82 2.326 0 .956-.333 1.75-1 2.38-.666.63-1.505.945-2.517.945-.683 0-1.356-.188-2.02-.563v-2.398l.222.108c.438.199.83.299 1.174.299.416 0 .744-.1.986-.3.242-.2.363-.471.363-.814 0-.385-.187-.71-.56-.977-.372-.267-.832-.4-1.379-.4-.208 0-.483.04-.827.122l.997-5.06h4.297zm-2.804-4.549c-1.166 0-2.136.882-2.342 2.048a5.357 5.357 0 012.367-.543c.835 0 1.623.187 2.313.517-.215-1.153-1.18-2.022-2.338-2.022zm-.07-2.31c-.526 0-.953.45-.953 1.004 0 .553.427 1.003.953 1.003.525 0 .953-.45.953-1.003 0-.553-.428-1.003-.953-1.003z" fill="#000" fill-rule="evenodd"/></svg>